<svg xmlns="http://www.w3.org/2000/svg" viewBox="0 0 1373.826 221.134"><g id="Layer_2" data-name="Layer 2"><g id="Layer_1-2" data-name="Layer 1"><path d="M21.844,221.134V153.162c0-16-7.112-22.1-21.844-22.352V107.188c14.732-.254,21.844-6.35,21.844-22.1V31.75C21.844,12.954,36.946,0,54.98,0H69.458V25.811h-6.1c-9.652,0-13.97,5.08-13.97,14.478V91.44c0,16.764-8.382,23.368-19.558,27.432,11.176,4.572,19.558,10.668,19.558,27.94v74.322Z"/><path d="M868.788,221.134V153.162c0-16-7.112-22.1-21.844-22.352V107.188c14.732-.254,21.844-6.35,21.844-22.1V31.75c0-18.8,15.1-31.75,33.135-31.75H916.4V25.811h-6.1c-9.652,0-13.97,5.08-13.97,14.478V91.44c0,16.764-8.382,23.368-19.558,27.432,11.176,4.572,19.558,10.668,19.558,27.94v74.322Z"/><path d="M201.881,125.631h-97.79c2.54,22.1,16.764,35.814,37.084,35.814,16.764,0,28.7-7.874,32-21.844l26.162,6.6c-6.858,24.637-28.7,38.862-58.674,38.862-40.64,0-63.754-31.5-63.754-66.04s21.844-66.04,62.484-66.04c41.148,0,62.992,29.972,62.992,61.214C202.389,118.011,202.135,123.345,201.881,125.631Zm-28.956-21.082c-1.778-17.272-13.208-29.718-33.528-29.718-17.526,0-29.972,10.668-34.036,29.718Z"/><path d="M330.912,103.279v79.756H303.734V163.477c-7.366,12.954-23.114,21.59-40.131,21.59-25.4,0-42.926-16-42.926-37.846,0-25.146,19.558-38.608,58.928-42.672l24.129-2.54v-1.778c0-15.748-10.922-25.4-27.686-25.4-15.494,0-26.416,9.144-28.193,24.384l-24.892-4.572c4.064-25.146,25.908-41.656,53.085-41.656C308.56,52.987,330.912,71.275,330.912,103.279Zm-27.178,24.638v-5.334l-24.383,2.794c-20.828,2.286-31.5,9.906-31.5,21.082,0,10.16,8.382,17.272,21.335,17.272C290.781,163.731,303.48,148.745,303.734,127.917Z"/><path d="M371.807,149.707V78.641H349.455V55.019h8.582a13.771,13.771,0,0,0,13.77-13.771V16.919h27.686v38.1h33.02V78.641h-33.02v62.484c0,5.538.034,8.374,3.287,12.578,3.068,3.964,10.917,3.717,15.046,3.717,4.756,0,14.636-.034,14.636-.034l.023,25.657s-16.273.006-28.858.006C392.556,183.049,371.807,175.352,371.807,149.707Z"/><path d="M572.466,183.035H544.781V161.7a48.468,48.468,0,0,1-41.91,23.368c-27.432,0-46.482-18.034-46.482-45.72V55.019h27.686V133c0,16,10.16,27.178,26.416,27.178,21.336,0,34.29-18.288,34.29-49.022V55.019h27.685Z"/><path d="M668.223,78.9c-18.8,0-35.306,16.764-35.306,56.388v47.752H605.231V55.019h27.686V79.4c6.858-15.24,23.622-26.416,39.116-26.416a41.777,41.777,0,0,1,14.224,2.286l-1.524,26.67A42.51,42.51,0,0,0,668.223,78.9Z"/><path d="M818.846,125.631h-97.79c2.54,22.1,16.764,35.814,37.084,35.814,16.764,0,28.7-7.874,32-21.844l26.162,6.6c-6.858,24.637-28.7,38.862-58.674,38.862-40.64,0-63.754-31.5-63.754-66.04s21.844-66.04,62.484-66.04c41.148,0,62.992,29.972,62.992,61.214C819.354,118.011,819.1,123.345,818.846,125.631ZM789.89,104.549c-1.778-17.272-13.208-29.718-33.528-29.718-17.526,0-29.972,10.668-34.036,29.718Z"/><path d="M922.219,119.027c0-38.354,27.432-66.04,66.04-66.04,38.354,0,66.04,27.686,66.04,66.04s-27.686,66.04-66.04,66.04C949.651,185.067,922.219,157.381,922.219,119.027Zm104.14,0c0-24.638-15.494-41.91-38.1-41.91-22.86,0-38.1,17.272-38.1,41.91s15.24,41.91,38.1,41.91C1010.865,160.937,1026.359,143.665,1026.359,119.027Z"/><path d="M1142.942,78.9c-18.8,0-35.306,16.764-35.306,56.388v47.752H1079.95V55.019h27.686V79.4c6.858-15.24,23.622-26.416,39.116-26.416a41.777,41.777,0,0,1,14.224,2.286l-1.524,26.67A42.51,42.51,0,0,0,1142.942,78.9Z"/><path d="M1180.533,55.019h27.685v21.59c6.859-13.97,19.05-23.622,37.592-23.622,20.574,0,35.306,8.89,40.64,25.4,6.858-13.97,22.1-25.4,42.164-25.4,27.432,0,45.212,17.78,45.212,43.688v86.36H1346.14v-79.5c0-16-9.144-26.67-25.4-26.67-19.05,0-29.972,16.764-29.972,41.4v64.77h-27.432v-79.5c0-16-8.89-26.67-25.146-26.67-19.05,0-29.972,17.018-29.972,41.4v64.77h-27.685Z"/></g></g></svg>