<svg version="1" xmlns="http://www.w3.org/2000/svg" width="933.333" height="933.333" viewBox="0 0 700.000000 700.000000"><path d="M327.8.5c-.2.2-3.9.6-8.3 1-10 .8-24.1 2.4-26.5 3-.3.1-2.5.5-5 .9-4.6.8-16.5 3.5-28 6.2-8.9 2.2-35.4 11.1-41.4 14-2.8 1.3-5.4 2.4-5.9 2.4-1 0-24.2 11.3-33.2 16.2-10.7 5.8-18.5 10.9-18.5 12 0 .6-.3.8-.6.5-.5-.5-10.7 5.9-16.9 10.6-38.3 28.9-66.9 59.9-91.4 98.9-3.4 5.4-6.1 10-6.1 10.2 0 .3-1.3 2.7-2.9 5.5-1.6 2.7-2.7 5.2-2.4 5.5.4.3.2.6-.4.6-1.4 0-7.6 13.7-6.7 15.1.4.7.3.9-.3.6-.6-.4-2 1.6-3.3 4.6-1.2 2.8-2.8 6.5-3.6 8.2-5.3 11.6-15.2 43.1-18 57-.2 1.1-1 5.4-1.9 9.5C1.7 307.1.2 326.2.6 355c.1 12.9.5 24.8.7 26.5.3 1.6.8 5.9 1.3 9.5 1.9 16.2 2.4 19.8 5.9 35.5 2.9 13.1 7 27.3 7.8 26.8.6-.3.7-.1.3.5-.6.9 4.9 18.6 7.4 23.7.5 1.1 1.8 4.2 2.9 7 3.9 10.2 15 32.5 21.4 43 3.5 5.7 17.8 27.3 19.4 29.2 1 1.2 2.9 3.8 4.3 5.8 2.5 3.6 3.2 4.4 9.8 12.4 11 13 30.8 32.9 42.2 42.1 3 2.5 6.6 5.5 8 6.8 1.4 1.3 3.7 3.1 5.3 4 1.5.9 2.7 2 2.7 2.4 0 .4.6.8 1.4.8.8 0 1.6.4 1.8.8.2.5 3.9 3.3 8.3 6.3s8.1 5.7 8.3 6.1c.2.5.9.8 1.5.8s2.7 1.1 4.6 2.3c5.9 3.9 8.5 5.4 9.5 5.5.5 0 1.2.5 1.5 1 .7 1.2 28.2 15 37.1 18.7 28.8 11.8 62 21 87 24 2.5.3 5.6.7 6.9 1 16.6 3.2 76.1 2.4 91.1-1.2 1.4-.3 4.3-.7 6.5-.9 2.2-.1 5.1-.6 6.5-.9 1.4-.4 4.1-.9 6-1.1 4.8-.7 28.8-7 38-9.9 18.7-6 46.8-17.5 48.2-19.8.4-.7.8-.9.8-.5 0 1.5 22.4-11.2 38.8-21.9 12.5-8.3 30.8-22.2 38.2-29.3.9-.8 4-3.7 6.8-6.3 2.9-2.7 4.9-5.3 4.6-5.9-.4-.6-.3-.8.3-.5 1.1.7 3.5-1.4 13.3-12 9.7-10.4 12.6-13.8 21.4-25.3 7.7-10.1 22.6-32.3 22.6-33.7 0-.3.6-1.4 1.4-2.2 1.4-1.7 12.5-23.2 17.4-34.1 4.2-9.1 9.5-23 12.7-33 1.5-4.7 3.3-10.3 4-12.5 1.3-4.2 7-28.8 7.8-34 .3-1.7 1-6 1.6-9.6 1.1-6.7 1.5-10 3-24.9.8-8 .6-54.6-.2-60-.3-1.4-.8-5.7-1.2-9.5-.4-3.9-.9-7.9-1.1-9-.2-1.1-.9-4.7-1.4-8-1.4-9.2-5.1-26.3-7.1-33-2.2-7.7-7.1-23.2-7.8-25-.5-1.1-2.7-7-5.1-13-7-18-22.7-49.3-25.2-50.3-.4-.2-.8-.8-.8-1.4 0-2.7-23-35.1-32.5-45.7-22.3-25-40.9-42-63-57.6-6.6-4.7-12.5-9-13.2-9.5-.7-.6-1.4-1-1.7-1-.3 0-2.5-1.4-4.9-3-2.5-1.7-4.8-3-5.3-3-.4 0-1.5-.6-2.3-1.4-2-1.8-28.9-15.5-36.1-18.5-6-2.4-7.8-3.2-13-5.4-15.3-6.6-54.1-17.1-70.5-19.2-2.2-.3-4.9-.7-6-.9-1.1-.2-5.4-.7-9.5-1.1-4.1-.4-8.6-.9-10-1.2-3-.5-52.7-1.2-53.2-.8z"/></svg>