<svg width="29" height="32" viewBox="0 0 29 32" fill="none" xmlns="http://www.w3.org/2000/svg">
<path d="M18.1258 31.55H18.5098L24.7786 28.4186L24.8829 28.2713V3.27681L24.7786 3.12874L18.5098 0H18.1211L18.1258 31.55Z" fill="#5294CF"/>
<path d="M9.96549 31.55H9.57608L3.31268 28.4186L3.18558 28.2002L3.12109 3.40411L3.31268 3.12874L9.57608 0H9.97031L9.96549 31.55Z" fill="#1F5B98"/>
<path d="M9.58594 0H18.5002V31.55H9.58594V0Z" fill="#2D72B8"/>
<path d="M28.0574 15.0664L27.8456 15.0194L24.8209 14.7377L24.776 14.76L18.5017 14.5094H9.58696L3.3125 14.76V9.98065L3.30593 9.98414L3.3125 9.97015L9.58696 8.51787H18.5017L24.776 9.97015L27.0826 11.1949V10.4075L28.0574 10.301L27.9565 10.1043L24.8701 7.89977L24.776 7.93028L18.5017 5.98819H9.58696L3.3125 7.93028V3.12891L0.03125 6.96881V10.3224L0.0566487 10.304L1.00603 10.4075V11.211L0.03125 11.7321V15.069L0.0566487 15.0664L1.00603 15.0804V16.4809L0.186926 16.4932L0.03125 16.4783V19.8164L1.00603 20.3401V21.1529L0.072085 21.2559L0.03125 21.2253V24.5783L3.3125 28.4188V23.6179L9.58696 25.5599H18.5017L24.7945 23.6122L24.8782 23.6488L27.9239 21.4767L28.0574 21.2603L27.0826 21.1529V20.3563L26.9548 20.3054L24.8701 21.4279L24.7945 21.5854L18.5017 23.0293V23.031H9.58696V23.0293L3.3125 21.5793V16.7824L9.58696 17.0322V17.0383H18.5017L24.776 16.7824L24.9189 16.848L27.8506 16.5958L28.0574 16.4949L27.0826 16.4809V15.0804L28.0574 15.0664Z" fill="#1A476F"/>
<path d="M24.7773 23.6177V28.4187L28.0587 24.5782V21.2471L24.7963 23.6121L24.7773 23.6177Z" fill="#2D72B8"/>
<path d="M24.7773 21.5896L24.7963 21.5852L28.0587 19.8324V16.4807L24.7773 16.7822V21.5896Z" fill="#2D72B8"/>
<path d="M24.7963 9.97435L24.7773 9.96997V14.7599L28.0587 15.0662V11.7161L24.7963 9.97435Z" fill="#2D72B8"/>
<path d="M24.7963 7.94909L28.0587 10.301V6.96968L24.7773 3.12891V7.93028L24.7963 7.93685V7.94909Z" fill="#2D72B8"/>
</svg>
