<svg width="18" height="16" viewBox="0 0 18 16" fill="none" xmlns="http://www.w3.org/2000/svg">
<path d="M10.6123 14.8274L12.9741 12.474L10.6123 10.1206L11.7849 8.94803L14.1383 11.2848L16.4917 8.94803L17.6643 10.1206L15.3275 12.474L17.6643 14.8274L16.4917 16L14.1383 13.6383L11.7849 16L10.6123 14.8274ZM8.31711 7.48441V14.0374C8.35037 14.2869 8.26721 14.553 8.07594 14.7277C7.75162 15.052 7.22771 15.052 6.90339 14.7277L5.23187 13.0561C5.0406 12.8649 4.95744 12.6071 4.9907 12.3659V7.48441H4.96575L0.175736 1.34719C-0.107008 0.989605 -0.0404802 0.465697 0.317108 0.182952C0.475112 0.0665281 0.649748 0 0.8327 0H12.4751C12.6581 0 12.8327 0.0665281 12.9907 0.182952C13.3483 0.465697 13.4148 0.989605 13.1321 1.34719L8.34205 7.48441H8.31711Z" fill="#757575"/>
</svg>