<svg version="1.1" id="Layer_1" xmlns:x="ns_extend;" xmlns:i="ns_ai;" xmlns:graph="ns_graphs;" xmlns="http://www.w3.org/2000/svg" xmlns:xlink="http://www.w3.org/1999/xlink" x="0px" y="0px" viewBox="0 0 310.3 50.6" style="enable-background:new 0 0 310.3 50.6;" xml:space="preserve">
 <metadata>
  <sfw xmlns="ns_sfw;">
   <slices>
   </slices>
   <sliceSourceBounds bottomLeftOrigin="true" height="50.6" width="310.3" x="-183.5" y="12.7">
   </sliceSourceBounds>
  </sfw>
 </metadata>
 <g>
  <g>
   <path d="M0.6,0H5c0.3,0,0.6,0.3,0.6,0.6V50c0,0.3-0.3,0.6-0.6,0.6H0.6C0.3,50.6,0,50.4,0,50V0.6C0,0.3,0.3,0,0.6,0z">
   </path>
   <path d="M11.8,0h4.4c0.3,0,0.6,0.3,0.6,0.6V50c0,0.3-0.3,0.6-0.6,0.6h-4.4c-0.3,0-0.6-0.3-0.6-0.6V0.6C11.3,0.3,11.5,0,11.8,0z">
   </path>
   <path d="M23.1,0h4.4c0.3,0,0.6,0.3,0.6,0.6V50c0,0.3-0.3,0.6-0.6,0.6h-4.4c-0.3,0-0.6-0.3-0.6-0.6V0.6C22.5,0.3,22.8,0,23.1,0z">
   </path>
   <path d="M34.3,0h4.4c0.3,0,0.6,0.3,0.6,0.6V50c0,0.3-0.3,0.6-0.6,0.6h-4.4c-0.3,0-0.6-0.3-0.6-0.6V0.6C33.7,0.3,34,0,34.3,0z">
   </path>
   <path d="M45.6,19.7H50c0.3,0,0.6,0.3,0.6,0.6v10.1c0,0.3-0.3,0.6-0.6,0.6h-4.4c-0.3,0-0.6-0.3-0.6-0.6V20.3
			C45,20,45.3,19.7,45.6,19.7z">
   </path>
  </g>
  <path d="M93.3,13.2c-1.6,0-3,0.3-4.3,0.9c-1.3,0.5-2.3,1.3-3.2,2.4c-0.9,1.1-1.5,2.4-2,3.9c-0.5,1.5-0.7,3.3-0.7,5.2
		c0,2.5,0.4,4.7,1.1,6.6c0.8,1.8,1.9,3.2,3.4,4.2c1.5,1,3.4,1.5,5.7,1.5c1.4,0,2.7-0.1,4-0.4c1.3-0.3,2.6-0.6,3.9-1v4.2
		c-1.3,0.5-2.6,0.8-3.9,1C96,41.9,94.4,42,92.7,42c-3.3,0-6-0.7-8.2-2c-2.2-1.4-3.8-3.3-4.9-5.8c-1.1-2.5-1.6-5.4-1.6-8.7
		c0-2.4,0.3-4.6,1-6.7c0.7-2,1.7-3.8,3-5.3c1.3-1.5,2.9-2.6,4.8-3.4C88.7,9.4,90.9,9,93.4,9c1.6,0,3.2,0.2,4.8,0.5
		c1.6,0.3,3,0.8,4.2,1.4l-1.8,4.1c-1.1-0.5-2.2-0.9-3.4-1.3C95.9,13.4,94.7,13.2,93.3,13.2z M112.3,41.6h-4.8V7.4h4.8V41.6z
		 M124.6,17.3v24.3h-4.8V17.3H124.6z M122.2,8.1c0.7,0,1.4,0.2,1.9,0.6c0.5,0.4,0.8,1.1,0.8,2.1c0,1-0.3,1.7-0.8,2.1
		c-0.5,0.4-1.2,0.6-1.9,0.6c-0.8,0-1.4-0.2-2-0.6c-0.5-0.5-0.8-1.2-0.8-2.1c0-1,0.3-1.7,0.8-2.1C120.8,8.3,121.4,8.1,122.2,8.1z
		 M141.8,42c-2.2,0-4.2-0.4-5.8-1.3c-1.7-0.9-3-2.2-3.9-4.1c-0.9-1.9-1.4-4.2-1.4-7.1c0-3,0.5-5.4,1.5-7.3c1-1.9,2.4-3.2,4.1-4.1
		c1.7-0.9,3.7-1.4,5.9-1.4c1.3,0,2.6,0.1,3.8,0.5c1.2,0.3,2.2,0.6,3,0.9l-1.4,3.9c-0.8-0.3-1.7-0.6-2.7-0.9
		c-0.9-0.2-1.8-0.4-2.7-0.4c-1.5,0-2.7,0.3-3.7,1c-1,0.6-1.7,1.6-2.2,2.9c-0.4,1.3-0.7,2.9-0.7,4.8c0,1.8,0.2,3.4,0.7,4.6
		c0.5,1.3,1.2,2.2,2.1,2.9c1,0.6,2.1,0.9,3.6,0.9c1.4,0,2.5-0.2,3.6-0.4c1-0.3,2-0.7,2.9-1.2v4.1c-0.9,0.5-1.8,0.9-2.8,1.1
		C144.5,41.9,143.3,42,141.8,42z M158.8,24.5c0,0.6,0,1.4-0.1,2.2c0,0.8-0.1,1.6-0.1,2.2h0.1c0.2-0.3,0.5-0.7,0.9-1.1
		c0.4-0.5,0.7-0.9,1.1-1.4c0.4-0.5,0.7-0.8,1-1.2l7.4-8h5.5l-9.8,10.4l10.4,13.9h-5.6l-8-10.8l-2.8,2.3v8.5h-4.7V7.4h4.7V24.5z
		 M204.8,41.6H200V26.9h-15.3v14.7h-4.9V9.4h4.9v13.3H200V9.4h4.9V41.6z M234.3,29.4c0,2-0.3,3.8-0.8,5.4c-0.5,1.6-1.3,2.9-2.3,4
		c-1,1.1-2.2,1.9-3.6,2.5c-1.4,0.5-3,0.8-4.8,0.8c-1.6,0-3.1-0.3-4.5-0.8c-1.4-0.6-2.6-1.4-3.6-2.5c-1-1.1-1.8-2.4-2.3-4
		c-0.6-1.6-0.9-3.4-0.9-5.4c0-2.7,0.4-4.9,1.4-6.8c0.9-1.9,2.2-3.3,4-4.2c1.7-1,3.8-1.5,6.1-1.5c2.2,0,4.2,0.5,5.8,1.5
		c1.7,1,3,2.4,4,4.2C233.8,24.4,234.3,26.7,234.3,29.4z M216.4,29.4c0,1.8,0.2,3.4,0.7,4.7c0.4,1.3,1.2,2.3,2.1,3c1,0.7,2.2,1,3.7,1
		c1.5,0,2.7-0.3,3.7-1c1-0.7,1.7-1.7,2.1-3c0.4-1.3,0.7-2.9,0.7-4.7c0-1.9-0.2-3.4-0.7-4.7c-0.4-1.3-1.2-2.2-2.1-2.9
		c-0.9-0.7-2.2-1-3.7-1c-2.2,0-3.9,0.8-4.9,2.2C216.9,24.6,216.4,26.7,216.4,29.4z M261.2,17.3v24.3h-3.8l-0.7-3.2h-0.2
		c-0.5,0.8-1.2,1.5-2,2.1c-0.8,0.5-1.7,0.9-2.7,1.2c-1,0.3-1.9,0.4-3,0.4c-1.9,0-3.5-0.3-4.8-0.9c-1.3-0.6-2.3-1.6-3-2.9
		c-0.7-1.3-1-3-1-5V17.3h4.8v15.2c0,1.9,0.4,3.3,1.2,4.2c0.8,0.9,2.1,1.4,3.7,1.4c1.7,0,3-0.3,4-1s1.6-1.6,2-2.9
		c0.4-1.3,0.6-2.8,0.6-4.6V17.3H261.2z M284.8,34.7c0,1.6-0.4,2.9-1.2,4c-0.8,1.1-1.9,1.9-3.4,2.5c-1.5,0.5-3.2,0.8-5.3,0.8
		c-1.7,0-3.2-0.1-4.4-0.4c-1.2-0.2-2.3-0.6-3.3-1.1v-4.2c1.1,0.5,2.3,1,3.7,1.4c1.4,0.4,2.8,0.6,4.1,0.6c1.8,0,3.1-0.3,3.9-0.9
		c0.8-0.6,1.2-1.3,1.2-2.3c0-0.5-0.1-1-0.5-1.4c-0.3-0.4-0.9-0.9-1.7-1.3c-0.8-0.5-2-1-3.6-1.6c-1.5-0.6-2.8-1.2-3.9-1.8
		c-1.1-0.6-1.9-1.4-2.5-2.2c-0.6-0.9-0.9-2-0.9-3.3c0-2.1,0.8-3.7,2.5-4.8c1.7-1.1,4-1.7,6.8-1.7c1.5,0,2.8,0.1,4.1,0.5
		c1.3,0.3,2.6,0.7,3.8,1.3l-1.6,3.6c-0.7-0.3-1.4-0.6-2.2-0.8c-0.7-0.2-1.5-0.4-2.2-0.6c-0.7-0.1-1.5-0.2-2.2-0.2
		c-1.4,0-2.5,0.2-3.3,0.7s-1.1,1.1-1.1,1.9c0,0.6,0.2,1.1,0.5,1.5c0.4,0.4,1,0.8,1.8,1.3s2.1,0.9,3.6,1.5c1.5,0.6,2.8,1.2,3.8,1.8
		c1.1,0.6,1.9,1.3,2.4,2.2C284.5,32.3,284.8,33.4,284.8,34.7z M300,16.9c2.1,0,4,0.5,5.5,1.4c1.5,0.9,2.7,2.1,3.5,3.8
		c0.8,1.7,1.3,3.6,1.3,5.9v2.6H294c0.1,2.5,0.7,4.4,1.9,5.7c1.3,1.3,3,2,5.3,2c1.6,0,2.9-0.1,4.1-0.4c1.2-0.3,2.5-0.7,3.8-1.3v4
		c-1.2,0.5-2.4,0.9-3.7,1.2c-1.2,0.3-2.7,0.4-4.4,0.4c-2.3,0-4.4-0.5-6.2-1.4c-1.8-0.9-3.2-2.3-4.2-4.1c-1-1.9-1.5-4.1-1.5-6.8
		c0-2.7,0.5-5,1.4-6.9c0.9-1.9,2.2-3.3,3.8-4.3C295.9,17.4,297.8,16.9,300,16.9z M300,20.5c-1.7,0-3.1,0.6-4.1,1.7
		c-1,1.1-1.6,2.7-1.8,4.7h11.4c0-1.3-0.2-2.4-0.6-3.3c-0.4-1-1-1.7-1.8-2.3C302.3,20.8,301.3,20.5,300,20.5z">
  </path>
 </g>
</svg>