<svg width="129" height="25" viewBox="0 0 129 25" fill="none" xmlns="http://www.w3.org/2000/svg">
<path d="M41.2 7.642C40.564 7.642 39.994 7.756 39.49 7.984C38.986 8.2 38.554 8.524 38.194 8.956C37.846 9.388 37.576 9.91 37.384 10.522C37.204 11.134 37.114 11.824 37.114 12.592C37.114 13.6 37.264 14.476 37.564 15.22C37.864 15.952 38.314 16.516 38.914 16.912C39.514 17.308 40.27 17.506 41.182 17.506C41.734 17.506 42.262 17.458 42.766 17.362C43.282 17.254 43.804 17.116 44.332 16.948V18.622C43.828 18.814 43.312 18.952 42.784 19.036C42.256 19.132 41.644 19.18 40.948 19.18C39.64 19.18 38.548 18.91 37.672 18.37C36.808 17.83 36.16 17.062 35.728 16.066C35.296 15.07 35.08 13.906 35.08 12.574C35.08 11.602 35.212 10.714 35.476 9.91C35.752 9.094 36.148 8.392 36.664 7.804C37.18 7.216 37.816 6.766 38.572 6.454C39.34 6.13 40.222 5.968 41.218 5.968C41.866 5.968 42.502 6.04 43.126 6.184C43.75 6.316 44.314 6.508 44.818 6.76L44.098 8.38C43.678 8.188 43.222 8.02 42.73 7.876C42.25 7.72 41.74 7.642 41.2 7.642ZM48.7926 19H46.8846V5.32H48.7926V19ZM53.6969 9.298V19H51.7889V9.298H53.6969ZM52.7609 5.608C53.0489 5.608 53.3009 5.692 53.5169 5.86C53.7329 6.028 53.8409 6.31 53.8409 6.706C53.8409 7.09 53.7329 7.372 53.5169 7.552C53.3009 7.72 53.0489 7.804 52.7609 7.804C52.4489 7.804 52.1849 7.72 51.9689 7.552C51.7649 7.372 51.6629 7.09 51.6629 6.706C51.6629 6.31 51.7649 6.028 51.9689 5.86C52.1849 5.692 52.4489 5.608 52.7609 5.608ZM60.5992 19.18C59.7112 19.18 58.9312 19.006 58.2592 18.658C57.5872 18.31 57.0652 17.77 56.6932 17.038C56.3212 16.294 56.1352 15.352 56.1352 14.212C56.1352 13.012 56.3332 12.04 56.7292 11.296C57.1372 10.552 57.6832 10.006 58.3672 9.658C59.0632 9.298 59.8552 9.118 60.7432 9.118C61.2832 9.118 61.7872 9.178 62.2552 9.298C62.7352 9.406 63.1312 9.532 63.4432 9.676L62.8672 11.224C62.5312 11.092 62.1712 10.978 61.7872 10.882C61.4152 10.786 61.0612 10.738 60.7252 10.738C60.1252 10.738 59.6272 10.87 59.2312 11.134C58.8472 11.386 58.5592 11.77 58.3672 12.286C58.1872 12.79 58.0972 13.426 58.0972 14.194C58.0972 14.926 58.1932 15.544 58.3852 16.048C58.5772 16.552 58.8592 16.936 59.2312 17.2C59.6152 17.452 60.0892 17.578 60.6532 17.578C61.1932 17.578 61.6672 17.518 62.0752 17.398C62.4832 17.278 62.8672 17.122 63.2272 16.93V18.586C62.8792 18.79 62.5012 18.94 62.0932 19.036C61.6852 19.132 61.1872 19.18 60.5992 19.18ZM67.4074 12.16C67.4074 12.412 67.3954 12.7 67.3714 13.024C67.3594 13.348 67.3414 13.648 67.3174 13.924H67.3714C67.4674 13.804 67.5814 13.66 67.7134 13.492C67.8574 13.312 68.0014 13.132 68.1454 12.952C68.2894 12.772 68.4214 12.616 68.5414 12.484L71.5114 9.298H73.7254L69.8194 13.456L73.9774 19H71.7274L68.5234 14.662L67.4074 15.598V19H65.5174V5.32H67.4074V12.16ZM85.8141 19H83.8701V13.132H77.7321V19H75.7881V6.148H77.7321V11.476H83.8701V6.148H85.8141V19ZM97.587 14.14C97.587 14.944 97.479 15.658 97.263 16.282C97.047 16.906 96.741 17.434 96.345 17.866C95.949 18.298 95.469 18.628 94.905 18.856C94.341 19.072 93.705 19.18 92.997 19.18C92.349 19.18 91.749 19.072 91.197 18.856C90.645 18.628 90.165 18.298 89.757 17.866C89.361 17.434 89.049 16.906 88.821 16.282C88.593 15.658 88.479 14.938 88.479 14.122C88.479 13.054 88.659 12.148 89.019 11.404C89.391 10.66 89.919 10.096 90.603 9.712C91.299 9.316 92.115 9.118 93.051 9.118C93.939 9.118 94.719 9.316 95.391 9.712C96.075 10.096 96.609 10.66 96.993 11.404C97.389 12.148 97.587 13.06 97.587 14.14ZM90.441 14.14C90.441 14.86 90.531 15.484 90.711 16.012C90.891 16.528 91.173 16.924 91.557 17.2C91.941 17.476 92.433 17.614 93.033 17.614C93.633 17.614 94.125 17.476 94.509 17.2C94.893 16.924 95.175 16.528 95.355 16.012C95.535 15.484 95.625 14.86 95.625 14.14C95.625 13.396 95.529 12.772 95.337 12.268C95.157 11.764 94.875 11.38 94.491 11.116C94.119 10.84 93.627 10.702 93.015 10.702C92.115 10.702 91.461 11.002 91.053 11.602C90.645 12.202 90.441 13.048 90.441 14.14ZM108.358 9.298V19H106.828L106.558 17.722H106.468C106.264 18.058 106 18.334 105.676 18.55C105.352 18.766 104.998 18.922 104.614 19.018C104.23 19.126 103.834 19.18 103.426 19.18C102.67 19.18 102.028 19.06 101.5 18.82C100.984 18.568 100.588 18.184 100.312 17.668C100.048 17.14 99.9157 16.468 99.9157 15.652V9.298H101.842V15.364C101.842 16.12 101.998 16.684 102.31 17.056C102.634 17.428 103.132 17.614 103.804 17.614C104.476 17.614 105.004 17.482 105.388 17.218C105.772 16.954 106.042 16.57 106.198 16.066C106.366 15.55 106.45 14.932 106.45 14.212V9.298H108.358ZM117.788 16.264C117.788 16.9 117.632 17.434 117.32 17.866C117.008 18.298 116.558 18.628 115.97 18.856C115.382 19.072 114.674 19.18 113.846 19.18C113.162 19.18 112.574 19.126 112.082 19.018C111.602 18.922 111.158 18.778 110.75 18.586V16.912C111.182 17.116 111.68 17.302 112.244 17.47C112.808 17.626 113.36 17.704 113.9 17.704C114.62 17.704 115.136 17.59 115.448 17.362C115.772 17.134 115.934 16.828 115.934 16.444C115.934 16.228 115.874 16.036 115.754 15.868C115.634 15.688 115.406 15.508 115.07 15.328C114.746 15.136 114.266 14.92 113.63 14.68C113.018 14.428 112.496 14.182 112.064 13.942C111.632 13.69 111.302 13.396 111.074 13.06C110.846 12.712 110.732 12.268 110.732 11.728C110.732 10.888 111.068 10.246 111.74 9.802C112.424 9.346 113.324 9.118 114.44 9.118C115.028 9.118 115.58 9.178 116.096 9.298C116.624 9.406 117.134 9.574 117.626 9.802L116.996 11.26C116.72 11.128 116.432 11.02 116.132 10.936C115.844 10.84 115.55 10.762 115.25 10.702C114.962 10.642 114.662 10.612 114.35 10.612C113.774 10.612 113.336 10.702 113.036 10.882C112.736 11.062 112.586 11.314 112.586 11.638C112.586 11.866 112.652 12.064 112.784 12.232C112.928 12.4 113.174 12.568 113.522 12.736C113.87 12.904 114.344 13.108 114.944 13.348C115.544 13.576 116.054 13.81 116.474 14.05C116.906 14.29 117.23 14.584 117.446 14.932C117.674 15.28 117.788 15.724 117.788 16.264ZM123.878 9.118C124.73 9.118 125.462 9.298 126.074 9.658C126.686 10.006 127.154 10.51 127.478 11.17C127.814 11.83 127.982 12.61 127.982 13.51V14.554H121.466C121.49 15.55 121.748 16.312 122.24 16.84C122.744 17.368 123.446 17.632 124.346 17.632C124.97 17.632 125.522 17.578 126.002 17.47C126.494 17.35 126.998 17.176 127.514 16.948V18.532C127.034 18.748 126.542 18.91 126.038 19.018C125.546 19.126 124.958 19.18 124.274 19.18C123.338 19.18 122.51 18.994 121.79 18.622C121.07 18.25 120.506 17.698 120.098 16.966C119.702 16.222 119.504 15.31 119.504 14.23C119.504 13.138 119.684 12.214 120.044 11.458C120.416 10.702 120.926 10.126 121.574 9.73C122.234 9.322 123.002 9.118 123.878 9.118ZM123.878 10.594C123.194 10.594 122.642 10.816 122.222 11.26C121.814 11.704 121.574 12.334 121.502 13.15H126.074C126.074 12.646 125.996 12.202 125.84 11.818C125.684 11.434 125.444 11.134 125.12 10.918C124.796 10.702 124.382 10.594 123.878 10.594Z" fill="#161517"/>
<rect x="1.875" y="1.875" width="2.24992" height="20.2493" rx="0.236664" fill="#FAFF69"/>
<rect x="6.375" y="1.875" width="2.24992" height="20.2493" rx="0.236664" fill="#FAFF69"/>
<rect x="10.8752" y="1.875" width="2.24992" height="20.2493" rx="0.236664" fill="#FAFF69"/>
<rect x="15.3743" y="1.875" width="2.24992" height="20.2493" rx="0.236664" fill="#FAFF69"/>
<rect x="19.8755" y="9.75" width="2.24992" height="4.49985" rx="0.236664" fill="#FAFF69"/>
</svg>
