<?xml version="1.0" encoding="UTF-8" standalone="no"?>
<svg
   xmlns:dc="http://purl.org/dc/elements/1.1/"
   xmlns:cc="http://creativecommons.org/ns#"
   xmlns:rdf="http://www.w3.org/1999/02/22-rdf-syntax-ns#"
   xmlns:svg="http://www.w3.org/2000/svg"
   xmlns="http://www.w3.org/2000/svg"
   xmlns:sodipodi="http://sodipodi.sourceforge.net/DTD/sodipodi-0.dtd"
   xmlns:inkscape="http://www.inkscape.org/namespaces/inkscape"
   viewBox="0 0 210 209.99999"
   version="1.1"
   id="svg943"
   sodipodi:docname="FeatureForm_Logo_Icon_White_Pink_bg.svg"
   width="210"
   height="210"
   inkscape:version="1.0.2 (e86c870879, 2021-01-15, custom)">
  <metadata
     id="metadata947">
    <rdf:RDF>
      <cc:Work
         rdf:about="">
        <dc:format>image/svg+xml</dc:format>
        <dc:type
           rdf:resource="http://purl.org/dc/dcmitype/StillImage" />
        <dc:title></dc:title>
      </cc:Work>
    </rdf:RDF>
  </metadata>
  <sodipodi:namedview
     pagecolor="#ffffff"
     bordercolor="#666666"
     borderopacity="1"
     objecttolerance="10"
     gridtolerance="10"
     guidetolerance="10"
     inkscape:pageopacity="0"
     inkscape:pageshadow="2"
     inkscape:window-width="1918"
     inkscape:window-height="1174"
     id="namedview945"
     showgrid="false"
     fit-margin-top="0"
     fit-margin-left="0"
     fit-margin-right="0"
     fit-margin-bottom="0"
     inkscape:zoom="1.5324025"
     inkscape:cx="141.38393"
     inkscape:cy="256.15285"
     inkscape:window-x="0"
     inkscape:window-y="24"
     inkscape:window-maximized="0"
     inkscape:current-layer="svg943" />
  <defs
     id="defs935">
    <style
       id="style933">.cls-1{fill:#fff;}</style>
  </defs>
  <rect
     style="fill:#f7195c;stroke-width:0.424854"
     id="rect951"
     width="210"
     height="210"
     x="0"
     y="0" />
  <g
     id="Layer_2"
     data-name="Layer 2"
     transform="matrix(0.21109459,0,0,0.21109459,61.835273,40.600001)">
    <g
       id="Layer_1-2"
       data-name="Layer 1">
      <path
         class="cls-1"
         d="M 60.272,610.153 V 422.6 C 60.272,378.448 40.648,361.627 0,360.927 v -65.175 c 40.648,-0.7 60.272,-17.52 60.272,-60.972 V 87.6 C 60.272,35.743 101.94,0 151.7,0 h 39.947 v 71.217 h -16.82 c -26.632,0 -38.546,14.017 -38.546,39.948 V 252.3 c 0,46.256 -23.127,64.477 -53.964,75.691 30.837,12.614 53.964,29.435 53.964,77.091 v 205.071 z"
         id="path937" />
      <path
         class="cls-1"
         d="M 277.585,610.153 V 422.6 c 0,-44.152 -19.623,-60.973 -60.271,-61.673 v -65.175 c 40.648,-0.7 60.271,-17.52 60.271,-60.972 V 87.6 C 277.585,35.739 319.254,0 369.013,0 h 39.948 v 71.217 h -16.82 c -26.632,0 -38.546,14.017 -38.546,39.948 V 252.3 c 0,46.256 -23.127,64.477 -53.964,75.691 30.837,12.614 53.964,29.435 53.964,77.091 v 205.071 z"
         id="path939" />
    </g>
  </g>
</svg>
