<?xml version="1.0" encoding="utf-8"?>
<!-- Generator: Adobe Illustrator 27.5.0, SVG Export Plug-In . SVG Version: 6.00 Build 0)  -->
<svg version="1.1" id="Layer_1" xmlns="http://www.w3.org/2000/svg" xmlns:xlink="http://www.w3.org/1999/xlink" x="0px" y="0px"
	 viewBox="0 0 1373.8 221.1" style="enable-background:new 0 0 1373.8 221.1;" xml:space="preserve">
<style type="text/css">
	.st0{fill:#FFFFFF;}
</style>
<g id="Layer_2_00000159451442094180315610000000554444934398829184_">
	<g id="Layer_1-2">
		<path class="st0" d="M21.8,221.1v-68c0-16-7.1-22.1-21.8-22.4v-23.6c14.7-0.3,21.8-6.3,21.8-22.1V31.8C21.8,13,36.9,0,55,0h14.5
			v25.8h-6.1c-9.7,0-14,5.1-14,14.5v51.2c0,16.8-8.4,23.4-19.6,27.4c11.2,4.6,19.6,10.7,19.6,27.9v74.3H21.8z"/>
		<path class="st0" d="M868.8,221.1v-68c0-16-7.1-22.1-21.8-22.4v-23.6c14.7-0.3,21.8-6.3,21.8-22.1V31.8C868.8,13,883.9,0,901.9,0
			h14.5v25.8h-6.1c-9.7,0-14,5.1-14,14.5v51.2c0,16.8-8.4,23.4-19.6,27.4c11.2,4.6,19.6,10.7,19.6,27.9v74.3H868.8z"/>
		<path class="st0" d="M201.9,125.6h-97.8c2.5,22.1,16.8,35.8,37.1,35.8c16.8,0,28.7-7.9,32-21.8l26.2,6.6
			c-6.9,24.6-28.7,38.9-58.7,38.9c-40.6,0-63.8-31.5-63.8-66s21.8-66,62.5-66c41.1,0,63,30,63,61.2
			C202.4,118,202.1,123.3,201.9,125.6z M172.9,104.5c-1.8-17.3-13.2-29.7-33.5-29.7c-17.5,0-30,10.7-34,29.7H172.9z"/>
		<path class="st0" d="M330.9,103.3V183h-27.2v-19.6c-7.4,13-23.1,21.6-40.1,21.6c-25.4,0-42.9-16-42.9-37.8
			c0-25.1,19.6-38.6,58.9-42.7l24.1-2.5v-1.8c0-15.7-10.9-25.4-27.7-25.4c-15.5,0-26.4,9.1-28.2,24.4L223,94.6
			c4-25.1,25.9-41.6,53-41.6C308.6,53,330.9,71.3,330.9,103.3z M303.7,127.9v-5.3l-24.4,2.8c-20.8,2.3-31.5,9.9-31.5,21.1
			c0,10.2,8.4,17.3,21.3,17.3C290.8,163.7,303.5,148.7,303.7,127.9L303.7,127.9z"/>
		<path class="st0" d="M371.8,149.7V78.6h-22.4V55h8.6c7.6,0,13.8-6.2,13.8-13.8V16.9h27.7V55h33v23.6h-33v62.5
			c0,5.5,0,8.4,3.3,12.6c3.1,4,10.9,3.7,15,3.7c4.8,0,14.6,0,14.6,0v25.7c0,0-16.3,0-28.9,0C392.6,183,371.8,175.4,371.8,149.7z"/>
		<path class="st0" d="M572.5,183h-27.7v-21.3c-8.9,14.6-24.8,23.5-41.9,23.4c-27.4,0-46.5-18-46.5-45.7V55h27.7v78
			c0,16,10.2,27.2,26.4,27.2c21.3,0,34.3-18.3,34.3-49V55h27.7V183z"/>
		<path class="st0" d="M668.2,78.9c-18.8,0-35.3,16.8-35.3,56.4V183h-27.7V55h27.7v24.4C639.8,64.2,656.5,53,672,53
			c4.8-0.1,9.7,0.7,14.2,2.3L684.7,82C679.5,79.8,673.9,78.8,668.2,78.9z"/>
		<path class="st0" d="M818.8,125.6H721c2.5,22.1,16.8,35.8,37.1,35.8c16.8,0,28.7-7.9,32-21.8l26.2,6.6
			c-6.9,24.6-28.7,38.9-58.7,38.9c-40.6,0-63.8-31.5-63.8-66s21.8-66,62.5-66c41.1,0,63,30,63,61.2
			C819.4,118,819.1,123.3,818.8,125.6z M789.9,104.5c-1.8-17.3-13.2-29.7-33.5-29.7c-17.5,0-30,10.7-34,29.7H789.9z"/>
		<path class="st0" d="M922.2,119c0-38.4,27.4-66,66-66c38.4,0,66,27.7,66,66s-27.7,66-66,66C949.7,185.1,922.2,157.4,922.2,119z
			 M1026.4,119c0-24.6-15.5-41.9-38.1-41.9c-22.9,0-38.1,17.3-38.1,41.9s15.2,41.9,38.1,41.9C1010.9,160.9,1026.4,143.7,1026.4,119z
			"/>
		<path class="st0" d="M1142.9,78.9c-18.8,0-35.3,16.8-35.3,56.4V183h-27.7V55h27.7v24.4c6.9-15.2,23.6-26.4,39.1-26.4
			c4.8-0.1,9.7,0.7,14.2,2.3l-1.5,26.7C1154.2,79.8,1148.6,78.8,1142.9,78.9z"/>
		<path class="st0" d="M1180.5,55h27.7v21.6c6.9-14,19.1-23.6,37.6-23.6c20.6,0,35.3,8.9,40.6,25.4c6.9-14,22.1-25.4,42.2-25.4
			c27.4,0,45.2,17.8,45.2,43.7V183h-27.7v-79.5c0-16-9.1-26.7-25.4-26.7c-19.1,0-30,16.8-30,41.4V183h-27.4v-79.5
			c0-16-8.9-26.7-25.1-26.7c-19.1,0-30,17-30,41.4V183h-27.7L1180.5,55z"/>
	</g>
</g>
</svg>
