<svg width="14" height="16" viewBox="0 0 14 16" fill="none" xmlns="http://www.w3.org/2000/svg">
<path d="M7 0C3.1325 0 0 1.56625 0 3.5C0 5.43375 3.1325 7 7 7C10.8675 7 14 5.43375 14 3.5C14 1.56625 10.8675 0 7 0ZM0 5.25V7.875C0 9.80875 3.1325 11.375 7 11.375C10.8675 11.375 14 9.80875 14 7.875V5.25C14 7.18375 10.8675 8.75 7 8.75C3.1325 8.75 0 7.18375 0 5.25ZM0 9.625V12.25C0 14.1838 3.1325 15.75 7 15.75C10.8675 15.75 14 14.1838 14 12.25V9.625C14 11.5588 10.8675 13.125 7 13.125C3.1325 13.125 0 11.5588 0 9.625Z" fill="#03B9FF"/>
</svg>
