<svg width="29" height="24" viewBox="0 0 29 24" fill="none" xmlns="http://www.w3.org/2000/svg">
<path d="M27.2114 18.4851C25.7035 19.267 17.892 22.462 16.229 23.3243C14.566 24.1869 13.6421 24.1786 12.3284 23.5538C11.0147 22.9291 2.70187 19.5889 1.20448 18.8769C0.455999 18.5211 0.0625 18.2208 0.0625 17.937V15.096C0.0625 15.096 10.8847 12.7523 12.6318 12.1289C14.3789 11.5053 14.9851 11.4828 16.4719 12.0246C17.9588 12.5664 26.849 14.162 28.3185 14.6974C28.3185 14.6974 28.3178 17.2349 28.3178 17.4983C28.3181 17.7791 27.979 18.0872 27.2114 18.4851Z" fill="#912626"/>
<path d="M27.2109 15.661C25.703 16.4426 17.8918 19.6376 16.2288 20.5C14.5659 21.3626 13.642 21.3542 12.3284 20.7294C11.0146 20.1051 2.70213 16.7644 1.20479 16.0528C-0.292559 15.3408 -0.324016 14.8507 1.14695 14.2778C2.61781 13.7047 10.8847 10.4783 12.632 9.85481C14.379 9.2315 14.9851 9.20877 16.4718 9.75073C17.9587 10.2925 25.7234 13.3669 27.1927 13.9021C28.6623 14.438 28.7187 14.8792 27.2109 15.661Z" fill="#C6302B"/>
<path d="M27.2114 13.8882C25.7035 14.6701 17.892 17.865 16.229 18.7277C14.566 19.59 13.6421 19.5816 12.3284 18.9569C11.0146 18.3324 2.70187 14.9919 1.20448 14.28C0.455999 13.9241 0.0625 13.6241 0.0625 13.3404V10.499C0.0625 10.499 10.8847 8.15545 12.6318 7.5319C14.3789 6.90846 14.9851 6.88584 16.4719 7.42759C17.9588 7.96945 26.849 9.56473 28.3185 10.1002C28.3185 10.1002 28.3178 12.6377 28.3178 12.9014C28.3181 13.1822 27.979 13.4903 27.2114 13.8882Z" fill="#912626"/>
<path d="M27.2109 11.0641C25.703 11.8458 17.8918 15.0406 16.2288 15.9033C14.5659 16.7656 13.642 16.7572 12.3284 16.1324C11.0146 15.5081 2.70213 12.1675 1.20479 11.4558C-0.292559 10.744 -0.324016 10.2539 1.14695 9.68074C2.61781 9.10793 10.8847 5.88136 12.632 5.25794C14.379 4.63452 14.9851 4.61191 16.4718 5.15375C17.9587 5.69548 25.7234 8.76965 27.1927 9.30513C28.6623 9.84082 28.7187 10.2823 27.2109 11.0641Z" fill="#C6302B"/>
<path d="M27.2114 9.12081C25.7035 9.90269 17.892 13.0977 16.229 13.9604C14.566 14.8228 13.6421 14.8143 12.3284 14.1896C11.0146 13.5652 2.70187 10.2245 1.20448 9.51279C0.455999 9.15682 0.0625 8.85674 0.0625 8.57324V5.73174C0.0625 5.73174 10.8847 3.38829 12.6318 2.76485C14.3789 2.1413 14.9851 2.11879 16.4719 2.66054C17.9588 3.2024 26.849 4.79768 28.3185 5.33317C28.3185 5.33317 28.3178 7.87063 28.3178 8.13426C28.3181 8.4148 27.979 8.7229 27.2114 9.12081Z" fill="#912626"/>
<path d="M27.2109 6.29634C25.703 7.07808 17.8918 10.2731 16.2288 11.1356C14.5659 11.9979 13.642 11.9895 12.3284 11.3649C11.0147 10.7404 2.70213 7.40001 1.20479 6.6882C-0.292559 5.9764 -0.324016 5.48616 1.14695 4.91313C2.61781 4.34022 10.8847 1.11398 12.632 0.490345C14.379 -0.133185 14.9851 -0.155583 16.4718 0.386259C17.9587 0.9281 25.7234 4.00227 27.1927 4.53774C28.6623 5.07311 28.7187 5.5146 27.2109 6.29634Z" fill="#C6302B"/>
<path d="M17.6333 3.53253L15.204 3.78343L14.6601 5.0851L13.7817 3.63254L10.9766 3.38175L13.0697 2.63091L12.4417 1.47827L14.4013 2.24067L16.2488 1.63896L15.7495 2.83082L17.6333 3.53253Z" fill="white"/>
<path d="M14.5378 9.84788L10.0039 7.9773L16.5007 6.98535L14.5378 9.84788Z" fill="white"/>
<path d="M8.23414 4.25586C10.1519 4.25586 11.7066 4.85538 11.7066 5.59479C11.7066 6.33431 10.1519 6.93372 8.23414 6.93372C6.31646 6.93372 4.76172 6.33431 4.76172 5.59479C4.76172 4.85538 6.31646 4.25586 8.23414 4.25586Z" fill="white"/>
<path d="M20.5273 3.88818L24.3723 5.39968L20.5306 6.90966L20.5273 3.88818Z" fill="#621B1C"/>
<path d="M16.2422 5.56201L20.496 3.88818L20.4993 6.90966L20.0823 7.07199L16.2422 5.56201Z" fill="#9A2928"/>
</svg>
