<svg width="28" height="30" viewBox="0 0 28 30" fill="none" xmlns="http://www.w3.org/2000/svg">
<path d="M3.93163 6.97517L9.84767 10.5302C10.1753 10.7275 10.5599 10.8079 10.9389 10.7581C11.3179 10.7084 11.6689 10.5315 11.9348 10.2563C12.1124 10.0847 12.2534 9.87875 12.3494 9.65093C12.4453 9.42311 12.4941 9.17816 12.4928 8.9309V1.80578C12.5046 1.4937 12.4322 1.1842 12.2833 0.909874C12.1343 0.635552 11.9143 0.406564 11.6464 0.247029C11.3786 0.0874999 11.0727 0.00330222 10.7611 0.00330222C10.4496 0.00330222 10.1437 0.0874999 9.87587 0.247029C9.60796 0.406564 9.38794 0.635552 9.23899 0.909874C9.09003 1.1842 9.01766 1.4937 9.02949 1.80578V5.86035L5.66988 3.84127C5.47177 3.72342 5.25209 3.64657 5.02384 3.61526C4.79558 3.58394 4.56338 3.5988 4.34095 3.65896C3.89252 3.77974 3.51412 4.08738 3.29491 4.4994C2.81419 5.36538 3.0948 6.45012 3.93163 6.97061M18.1532 10.5257L24.0693 6.97061C24.9061 6.44966 25.1872 5.36036 24.706 4.49849C24.5972 4.29513 24.4484 4.11596 24.2686 3.97177C24.0889 3.82758 23.8818 3.72137 23.66 3.65953C23.4382 3.59769 23.2061 3.58151 22.9779 3.61196C22.7496 3.64241 22.5299 3.71886 22.3319 3.83671L19.0119 5.82844V1.7994C19.0203 1.56621 18.9818 1.33372 18.8986 1.1158C18.8153 0.897882 18.6891 0.699006 18.5275 0.531052C18.3659 0.363097 18.1721 0.22951 17.9578 0.138268C17.7435 0.0470254 17.5131 0 17.2802 0C17.0474 0 16.817 0.0470254 16.6027 0.138268C16.3884 0.22951 16.1946 0.363097 16.033 0.531052C15.8714 0.699006 15.7452 0.897882 15.6619 1.1158C15.5787 1.33372 15.5402 1.56621 15.5486 1.7994V8.78323C15.513 9.15732 15.5913 9.53345 15.7733 9.86205C15.9925 10.2736 16.3709 10.5776 16.8193 10.7025C17.0415 10.7648 17.274 10.7807 17.5026 10.7494C17.7312 10.718 17.9509 10.64 18.1482 10.5202M12.8876 14.5738C12.8935 14.4599 12.9367 14.346 13.0113 14.2639L13.7026 13.5438C13.7844 13.4675 13.8902 13.422 14.0018 13.4153H14.0277C14.1391 13.4219 14.2447 13.4673 14.3261 13.5438L15.0174 14.2639C15.0922 14.3505 15.1358 14.4599 15.1411 14.5743V14.6016C15.1356 14.7163 15.0921 14.8259 15.0174 14.9129L14.3261 15.6331C14.245 15.7102 14.1393 15.756 14.0277 15.7625H14.0018C13.8899 15.7561 13.7835 15.7101 13.7026 15.6331L13.0113 14.9129C12.9366 14.8259 12.893 14.7163 12.8876 14.6016V14.5738ZM10.7937 14.2776V14.8993C10.8013 15.0555 10.8609 15.2047 10.9628 15.3231L13.3096 17.7647C13.4203 17.8697 13.5645 17.932 13.7167 17.9406H14.3134C14.4655 17.932 14.6097 17.8697 14.7204 17.7647L17.0672 15.3231C17.1691 15.2047 17.2287 15.0555 17.2364 14.8993V14.2776C17.2287 14.1214 17.1691 13.9722 17.0672 13.8537L14.7204 11.4121C14.6097 11.3072 14.4655 11.2449 14.3134 11.2362H13.7167C13.5645 11.2449 13.4203 11.3072 13.3096 11.4121L10.9628 13.8583C10.8612 13.9769 10.8017 14.126 10.7937 14.2821M0.870826 12.5912L4.22043 14.6044L0.870826 16.6157C0.468244 16.867 0.177599 17.2639 0.0591409 17.7242C-0.0593172 18.1845 0.00349604 18.6727 0.23456 19.0878C0.343219 19.2915 0.49193 19.4709 0.671715 19.6154C0.8515 19.7598 1.05863 19.8663 1.2806 19.9283C1.72903 20.0532 2.2093 19.9889 2.60953 19.7496L8.52557 16.1946C9.07133 15.8473 9.38969 15.2475 9.38969 14.603C9.38965 14.2865 9.31055 13.9751 9.15962 13.6971C9.00868 13.4191 8.79071 13.1834 8.52557 13.0114L2.60953 9.45641C2.41142 9.33856 2.19174 9.26171 1.96349 9.2304C1.73523 9.19908 1.50303 9.21394 1.2806 9.2741C0.832168 9.39488 0.453774 9.70252 0.23456 10.1145C-0.246164 10.9805 0.0344478 12.0643 0.87128 12.5858M18.6062 14.6103C18.601 14.9273 18.6784 15.2403 18.8307 15.5182C18.983 15.7961 19.2051 16.0294 19.4749 16.195L25.3873 19.7501C25.7875 19.9889 26.2669 20.0536 26.7153 19.9287C27.1637 19.8039 27.5417 19.5003 27.7613 19.0887C27.9935 18.6738 28.0569 18.1852 27.9383 17.7246C27.8196 17.264 27.5282 16.8671 27.1246 16.6166L23.7791 14.6048L27.1287 12.5917C27.9656 12.0707 28.2462 10.9828 27.7654 10.1205C27.657 9.91667 27.5084 9.73708 27.3285 9.59261C27.1487 9.44813 26.9415 9.34178 26.7194 9.28002C26.2705 9.15514 25.7907 9.21895 25.3914 9.46233L19.479 13.0174C19.2071 13.1842 18.9838 13.4196 18.8314 13.7002C18.6789 13.9807 18.6027 14.2964 18.6103 14.6158M11.0356 18.4652C10.6273 18.3863 10.2043 18.4616 9.84813 18.6767L3.93209 22.2318C3.09525 22.7527 2.8151 23.8406 3.29537 24.703C3.51503 25.1145 3.89297 25.4185 4.34141 25.543C4.56347 25.6047 4.79572 25.6207 5.02412 25.59C5.25253 25.5593 5.47236 25.4825 5.67033 25.3643L9.02994 23.3452V27.3697C9.02068 27.6034 9.05861 27.8365 9.14145 28.0551C9.22429 28.2737 9.35034 28.4733 9.51203 28.6419C9.67372 28.8105 9.86772 28.9446 10.0824 29.0362C10.2971 29.1279 10.528 29.1751 10.7614 29.1751C10.9947 29.1751 11.2256 29.1279 11.4403 29.0362C11.655 28.9446 11.849 28.8105 12.0107 28.6419C12.1724 28.4733 12.2984 28.2737 12.3813 28.0551C12.4641 27.8365 12.502 27.6034 12.4928 27.3697V20.2391C12.4989 19.8178 12.3559 19.4079 12.089 19.0822C11.8222 18.7565 11.4488 18.5362 11.0352 18.4602M24.0697 22.2322L18.1537 18.6772C17.9557 18.559 17.7359 18.4822 17.5075 18.4515C17.2791 18.4208 17.0468 18.4368 16.8248 18.4985C16.6027 18.5602 16.3955 18.6665 16.2157 18.8109C16.0359 18.9553 15.8872 19.1348 15.7787 19.3385C15.5968 19.6676 15.5185 20.0442 15.5541 20.4187V27.3693C15.5448 27.6029 15.5827 27.836 15.6656 28.0546C15.7484 28.2732 15.8745 28.4728 16.0361 28.6414C16.1978 28.81 16.3918 28.9442 16.6065 29.0358C16.8212 29.1274 17.0521 29.1746 17.2855 29.1746C17.5188 29.1746 17.7498 29.1274 17.9644 29.0358C18.1791 28.9442 18.3731 28.81 18.5348 28.6414C18.6965 28.4728 18.8226 28.2732 18.9054 28.0546C18.9882 27.836 19.0262 27.6029 19.0169 27.3693V23.3748L22.331 25.3666C22.5291 25.4844 22.7488 25.5613 22.9771 25.5926C23.2053 25.6239 23.4375 25.609 23.66 25.5489C24.1084 25.4281 24.4868 25.1205 24.706 24.7084C25.1867 23.8425 24.9061 22.7577 24.0693 22.2372" fill="#29B5E8"/>
</svg>
