<?xml version="1.0" encoding="UTF-8"?>
<svg id="Layer_2" data-name="Layer 2" xmlns="http://www.w3.org/2000/svg" viewBox="0 0 250.77 65.78">
  <defs>
    <style>
      .cls-1 {
        fill: #f7195c;
      }

      .cls-2 {
        fill: #fff;
      }
    </style>
  </defs>
  <g id="Layer_1-2" data-name="Layer 1">
    <g>
      <rect class="cls-1" y="0" width="250.77" height="65.78" rx="4.32" ry="4.32"/>
      <g id="ff1">
        <path class="cls-2" d="m75.63,17.79v3.83c0,1.2-.97,2.17-2.17,2.17h-1.35v3.71h3.51v11.17c0,4.03,3.26,5.24,5,5.24,1.98,0,4.54,0,4.54,0v-4.03s-1.56,0-2.3,0c-.65,0-1.88.04-2.37-.58-.51-.66-.52-1.11-.52-1.98v-9.82h5.19v-3.71h-5.19v-5.99h-4.35Z"/>
        <path class="cls-2" d="m88.93,23.78v13.26c0,4.35,3,7.19,7.31,7.19,2.92,0,5.27-1.52,6.59-3.67v3.35h4.35v-20.13h-4.35v8.83c0,4.83-2.04,7.71-5.39,7.71-2.56,0-4.15-1.76-4.15-4.27v-12.26h-4.35Z"/>
        <path class="cls-2" d="m24.94,29.51v-8.04c0-1.48.68-2.28,2.2-2.28h.96v-4.06h-2.28c-2.84,0-5.21,2.04-5.21,4.99v8.39c0,2.48-1.12,3.43-3.43,3.47v3.71c2.32.04,3.43,1,3.43,3.51v10.69h4.33v-11.69c0-2.72-1.32-3.67-3.08-4.39,1.76-.64,3.08-1.68,3.08-4.31Z"/>
        <path class="cls-2" d="m112.33,23.78v20.13h4.35v-7.51c0-6.23,2.6-8.87,5.55-8.87.92,0,1.88.16,2.6.48l.24-4.19c-.6-.24-1.48-.36-2.24-.36-2.44,0-5.07,1.76-6.15,4.15v-3.83h-4.35Z"/>
        <path class="cls-2" d="m61.13,31.57c-6.19.64-9.26,2.76-9.26,6.71,0,3.43,2.76,5.95,6.75,5.95,2.68,0,5.15-1.36,6.31-3.39v3.07h4.27v-12.54c0-5.03-3.51-7.91-8.63-7.91-4.27,0-7.71,2.6-8.35,6.55l3.91.72c.28-2.4,2-3.83,4.43-3.83,2.64,0,4.35,1.52,4.35,3.99v.28l-3.79.4Zm3.79,3.67c-.04,3.27-2.04,5.63-5.43,5.63-2.04,0-3.35-1.12-3.35-2.72,0-1.76,1.68-2.96,4.95-3.31l3.83-.44v.84Z"/>
        <path class="cls-2" d="m48.99,33.09c0-4.91-3.43-9.62-9.9-9.62s-9.82,4.95-9.82,10.38,3.63,10.38,10.02,10.38c4.71,0,8.15-2.24,9.23-6.11l-4.11-1.04c-.52,2.2-2.4,3.43-5.03,3.43-3.19,0-5.43-2.16-5.83-5.63h15.38c.04-.36.08-1.2.08-1.8Zm-15.26-1.52c.64-3,2.6-4.67,5.35-4.67,3.19,0,4.99,1.96,5.27,4.67h-10.62Z"/>
        <path class="cls-2" d="m145.99,33.09c0-4.91-3.43-9.62-9.9-9.62s-9.82,4.95-9.82,10.38,3.63,10.38,10.02,10.38c4.71,0,8.15-2.24,9.23-6.11l-4.11-1.04c-.52,2.2-2.4,3.43-5.03,3.43-3.19,0-5.43-2.16-5.83-5.63h15.38c.04-.36.08-1.2.08-1.8Zm-15.26-1.52c.64-3,2.6-4.67,5.35-4.67,3.19,0,4.99,1.96,5.27,4.67h-10.62Z"/>
        <path class="cls-2" d="m202.78,23.78v20.13h4.35v-10.18c0-3.83,1.72-6.51,4.71-6.51,2.56,0,3.95,1.68,3.95,4.19v12.5h4.31v-10.18c0-3.87,1.72-6.51,4.71-6.51,2.56,0,3.99,1.68,3.99,4.19v12.5h4.35v-13.58c0-4.07-2.8-6.87-7.11-6.87-3.15,0-5.55,1.8-6.63,3.99-.84-2.6-3.15-3.99-6.39-3.99-2.92,0-4.83,1.52-5.91,3.71v-3.39h-4.35Z"/>
        <path class="cls-2" d="m186.97,23.78v20.13h4.35v-7.51c0-6.23,2.6-8.87,5.55-8.87.92,0,1.88.16,2.6.48l.24-4.19c-.6-.24-1.48-.36-2.24-.36-2.44,0-5.07,1.76-6.15,4.15v-3.83h-4.35Z"/>
        <path class="cls-2" d="m182.93,33.85c0-6.03-4.35-10.38-10.38-10.38s-10.38,4.35-10.38,10.38,4.31,10.38,10.38,10.38,10.38-4.35,10.38-10.38Zm-16.37,0c0-3.87,2.4-6.59,5.99-6.59s5.99,2.72,5.99,6.59-2.44,6.59-5.99,6.59-5.99-2.72-5.99-6.59Z"/>
        <path class="cls-2" d="m158.1,29.51v-8.04c0-1.48.68-2.28,2.2-2.28h.96v-4.06h-2.28c-2.84,0-5.21,2.04-5.21,4.99v8.39c0,2.48-1.12,3.43-3.43,3.47v3.71c2.32.04,3.43,1,3.43,3.51v10.69h4.33v-11.69c0-2.72-1.32-3.67-3.07-4.39,1.76-.64,3.07-1.68,3.07-4.31Z"/>
      </g>
    </g>
  </g>
</svg>